<svg width="580" height="400" xmlns="http://www.w3.org/2000/svg">
 <!-- Created with Method Draw - http://github.com/duopixel/Method-Draw/ -->
 <g>
  <title>background</title>
  <rect fill="#fff" id="canvas_background" height="402" width="582" y="-1" x="-1"/>
  <g display="none" overflow="visible" y="0" x="0" height="100%" width="100%" id="canvasGrid">
   <rect fill="url(#gridpattern)" stroke-width="0" y="0" x="0" height="100%" width="100%"/>
  </g>
 </g>
 <g>
  <title>Layer 1</title>
  <rect id="svg_2" height="57" width="57" y="152" x="165.5" stroke-width="1.5" stroke="#000" fill="#fff"/>
  <text stroke="#000" transform="matrix(1,0,0,0.9629629850387573,0,1.6666656732559204) " xml:space="preserve" text-anchor="start" font-family="Helvetica, Arial, sans-serif" font-size="24" id="svg_1" y="193.692305" x="176.5" stroke-width="0" fill="#000000">OA</text>
  <path stroke="#000" id="svg_3" d="m167.060545,199.225052c1.748083,0 3.391668,0.779021 4.626344,2.19225c1.237516,1.413875 1.917894,3.297749 1.917894,5.302517l2.69482,0c0,-5.823588 -4.145308,-10.560426 -9.239625,-10.560426l0,3.065659l0.000568,0zm0.003408,-5.435694c6.231877,0 11.300637,5.802254 11.300637,12.933693l2.693684,0c0,-8.822012 -6.277879,-15.999999 -13.994889,-15.999999l0,3.066305l0.000568,0zm3.725609,10.790577c0,1.173381 -0.835422,2.125015 -1.865644,2.125015s-1.865644,-0.951634 -1.865644,-2.125015c0,-1.172088 0.835422,-2.123722 1.865644,-2.123722s1.865644,0.950988 1.865644,2.123722z" stroke-width="1.5" fill="#fff"/>
  <path id="svg_4" d="m199.97485,142.635666c-1.320534,-0.626535 -1.847814,-2.348468 -1.847814,-2.348468s-0.59494,0.390028 -0.59494,-0.70537s0.59494,0.70537 1.189881,-3.524085c0,0 1.649501,-0.549082 1.320534,-5.08973l-0.396627,0c0,0 0.990401,-4.854606 0,-6.499087c-0.991567,-1.644481 -1.387027,-2.739879 -3.567308,-3.524085s-1.385861,-0.627918 -2.971202,-0.547699c-1.585341,0.078835 -2.907041,1.095398 -2.907041,1.643098c0,0 -0.990401,0.078835 -1.385861,0.549082c-0.396627,0.470247 -1.056894,2.661043 -1.056894,3.210126s0.330134,4.229455 0.660267,5.012277l-0.393127,0.156288c-0.330134,4.540647 1.320534,5.08973 1.320534,5.08973c0.593774,4.229455 1.188714,2.428686 1.188714,3.524085s-0.59494,0.70537 -0.59494,0.70537s-0.52728,1.721933 -1.847814,2.348468c-1.320534,0.625152 -8.651131,3.991565 -9.247238,4.696935c-0.596107,0.706753 -0.528447,3.994331 -0.528447,3.994331l31.43501,0c0,0 0.068826,-3.287578 -0.52728,-3.994331c-0.597273,-0.70537 -7.927871,-4.071784 -9.248405,-4.696935zm-14.546873,-0.23789c-0.115488,-0.248954 -0.172649,-0.428754 -0.172649,-0.428754s-0.503949,0.330556 -0.503949,-0.59749s0.503949,0.59749 1.007899,-2.986067c0,0 1.398693,-0.464714 1.118721,-4.313823l-0.335966,0c0,0 0.166817,-0.8174 0.276472,-1.845027c-0.004666,-0.425988 0.006999,-0.879638 0.043162,-1.377546l0.044329,-0.589192c-0.024498,-0.680475 -0.124821,-1.298711 -0.363963,-1.695655c-0.839916,-1.39276 -1.175882,-2.322189 -3.02253,-2.986067c-1.846648,-0.663878 -1.175882,-0.532485 -2.51858,-0.464714c-1.343865,0.066388 -2.463753,0.928046 -2.463753,1.394143c0,0 -0.839916,0.066388 -1.175882,0.464714c-0.316135,0.374814 -0.822417,2.022061 -0.883078,2.607103l0,0.388645c0.054828,0.90315 0.30097,3.38716 0.547112,3.972202l-0.333633,0.132776c-0.278805,3.849108 1.118721,4.313823 1.118721,4.313823c0.503949,3.583557 1.007899,2.058021 1.007899,2.986067s-0.503949,0.59749 -0.503949,0.59749s-0.446788,1.461914 -1.566676,1.99025c-0.07116,0.033194 -0.16215,0.077452 -0.270639,0.127243l0,7.239034l0.670766,0c-0.03383,-1.767575 0.089824,-4.048271 0.870246,-4.970785c0.415292,-0.490993 1.776655,-1.298711 7.409923,-3.958371zm26.049051,-12.525161c-0.046662,-0.522804 -0.148152,-0.988901 -0.340632,-1.308392c-0.838749,-1.394143 -1.175882,-2.322189 -3.021363,-2.986067c-1.847814,-0.663878 -1.175882,-0.532485 -2.519747,-0.464714c-1.342699,0.066388 -2.462586,0.928046 -2.462586,1.394143c0,0 -0.838749,0.066388 -1.175882,0.464714c-0.316135,0.376197 -0.827084,2.035892 -0.884245,2.615402l0.038496,0l0.093324,1.262751c0.023331,0.319491 0.025664,0.603022 0.031497,0.892086c0.104989,0.92113 0.244975,1.867156 0.384961,2.197712l-0.333633,0.132776c-0.278805,3.849108 1.119888,4.313823 1.119888,4.313823c0.503949,3.583557 1.006732,2.058021 1.006732,2.986067s-0.503949,0.59749 -0.503949,0.59749s-0.061827,0.196397 -0.190148,0.467481c5.564441,2.62785 6.914139,3.430035 7.324764,3.919645c0.781588,0.922514 0.904076,3.201827 0.870246,4.970785l0.559944,0l0,-7.338616c-0.018665,-0.008298 -0.044329,-0.020746 -0.060661,-0.029045c-1.118721,-0.529719 -1.566676,-1.99025 -1.566676,-1.99025s-0.505116,0.330556 -0.505116,-0.59749s0.505116,0.59749 1.007899,-2.986067c0,0 0.937906,-0.316725 1.123387,-2.546248l0,-1.697038c-0.001167,-0.024895 -0.001167,-0.045642 -0.0035,-0.070537l-0.337133,0c0,0 0.250808,-1.23094 0.340632,-2.573909l0,-1.626501l0.0035,0z" fill-opacity="null" stroke-opacity="null" stroke-width="1.5" stroke="#000" fill="#fff"/>
 </g>
</svg>